<?xml version="1.0" encoding="utf-8"?>
<!-- Generator: Adobe Illustrator 19.0.0, SVG Export Plug-In . SVG Version: 6.00 Build 0)  -->
<svg version="1.1" id="Layer_1" xmlns="http://www.w3.org/2000/svg" xmlns:xlink="http://www.w3.org/1999/xlink" x="0px" y="0px"
	 viewBox="422 -137.9 1100 445" style="enable-background:new 422 -137.9 1100 445;" xml:space="preserve">
<style type="text/css">
	.st0{fill:#0091EA;}
	.st1{fill:#FFFFFF;}
</style>
<g id="XMLID_46_">
	<g id="XMLID_395_">
		<g id="XMLID_396_">
			<path id="XMLID_403_" class="st0" d="M557.6,79.9c4.8,0,9-1.7,12.4-5.2c1-1,1.8-2.2,2.6-3.2c0.7,1.2,1.6,2.2,2.5,3.2
				c3.4,3.4,7.4,5.2,12.2,5.2s9-1.7,12.2-5.2c3.4-3.4,4.9-7.5,4.9-12.4c0-4.8-1.7-9-4.9-12.2s-7.4-4.9-12.2-4.9s-9,1.7-12.2,4.9
				c-1,1-1.8,2.1-2.5,3.2c-0.7-1.2-1.6-2.2-2.6-3.2c-3.4-3.4-7.5-4.9-12.4-4.9c-4.7,0-8.8,1.7-12.2,5.1c-3.4,3.4-5.1,7.4-5.1,12.2
				s1.7,9,4.9,12.4C548.7,78.2,552.7,79.9,557.6,79.9z"/>
			<path id="XMLID_402_" class="st0" d="M909.6,50.4c-4.2,0-7.5,1.4-10.2,4.4s-4,6.5-4,10.7c0,3,0.8,7.4,2.2,13.1
				c1.4,5.7,2.2,10.2,2.2,13.1c0,10.5-7.5,15.7-22.5,15.7H872h-8.5h-3.6c-13.4,0-26.1-5.9-38.2-17.6c-14.2-14.1-23.7-23.5-28.6-28.5
				c-17.4-16.9-32.4-30.4-45-40.6c-2.1-1.7-3.1-3.6-3.1-5.6c0-2.1,1.3-3.6,3.8-4.7c25-9.8,51.9-18,80.5-24.5
				c8.8-2,13.3-6.8,13.3-14.1c0-9.8-5.7-14.7-17.2-14.7c-2,0-4.3,0.3-6.9,0.9c-41.9,9.8-72.5,20.7-92,32.7c-8.7,5.3-13,14.1-13,26.1
				c0,5.9,0.9,10.5,2.9,14.1c3.4,6,14.6,17.3,33.6,33.6c16.9,14.6,25.4,24.5,25.4,29.7c0,7-7.2,11.2-21.6,12.6
				c-3.1,0.3-14.8,0.4-35.1,0.4h-4.3h-4.8c-13.5,0-21.3-5.5-23.4-16.5c-1.2-6.1-2-10-2.2-11.4c-1.8-4.4-5.3-6.6-10.4-6.6
				c-4.7,0-8.3,3-10.9,9c-4.3,9.6-6.9,15.2-8.2,16.8c-9,11.3-32.7,16.9-70.9,16.9H565c-26,0-43.8-3-53.5-9.1
				c-6.5-4.2-9.8-10.4-9.8-18.9c0-2.5,0.5-6.2,1.6-11.1c1-4.9,1.6-8.6,1.6-11.1c0-7.4-3.6-11.1-11.1-11.1c-6.9,0-12.4,6-16,18
				c-2.6,8.5-3.9,17.2-3.9,26.3c0,35,29.8,52.4,89.5,52.4c57.4,0,92.9-9,106.4-26.9c5.9,12.4,17.3,18.6,34.3,18.6h1.7h8.7h0.3
				c25.9,0,44.1-1.6,54.8-4.8c16.3-4.9,26.3-15.2,30-30.7c16.8,23.7,37.7,35.5,62.6,35.5h1.6h8.6h3.4c16.8,0,29.9-4.9,39.4-14.7
				s14.2-23.2,14.2-40.1C929,62.8,922.5,50.4,909.6,50.4z"/>
			<path id="XMLID_401_" class="st0" d="M884.9,161.4c-4.7,0-8.8,1.7-12.2,5.1c-2.2,2.2-3.6,4.8-4.4,7.5c-0.8-2.9-2.2-5.3-4.4-7.5
				c-3.4-3.4-7.4-5.1-12.2-5.1s-9,1.7-12.4,4.9c-3.4,3.3-5.1,7.4-5.1,12.2s1.7,9,5.1,12.4c3.4,3.4,7.5,5.2,12.4,5.2s9-1.7,12.2-5.2
				c2.2-2.2,3.5-4.8,4.3-7.7c0.8,2.9,2.1,5.5,4.3,7.7c3.4,3.4,7.4,5.2,12.2,5.2s9-1.7,12.4-5.2c3.4-3.4,5.1-7.5,5.1-12.4
				s-1.7-9-5.1-12.2C893.6,163.1,889.7,161.4,884.9,161.4z"/>
			<path id="XMLID_397_" class="st0" d="M1097.5,74.7c-6.2-9.8-15.1-14.7-26.7-14.7c-9.6,0-19.1,5.2-28.6,15.5
				c-2,2.2-6.8,8.7-14.3,19.5c-3.4,4.9-6.8,8.3-9.9,10c-3.1,1.7-7.5,2.6-13.4,2.6h-3.9c-15.9,0-23.7-9.8-23.7-29.1V-23.3
				c0-13.5-5.2-20.3-15.5-20.3c-5.2,0-9.2,2.2-12,6.5c-2.5,3.8-3.5,8.3-3.4,13.8l3.5,96.1c0.9,23.9,3.4,40.2,7.4,48.9
				c6.6,14.2,20,21.2,40.2,21.2h1.6h8.6h0.9c11.2,0,20.5-3.9,28.2-11.6c8.7,10.4,19.9,15.6,33.8,15.6c10.8,0,19.5-4.3,26-13
				c6-7.8,9-17.2,9-28.4C1105.6,93.2,1102.8,82.9,1097.5,74.7z M1069.6,117.6c-3.4,0-6.9-1-10.9-3c-4.7-2.5-6.9-5.1-6.9-8.1
				c0-3.9,2-7.7,5.9-11.2s7.8-5.3,11.7-5.3s7,1.8,9.4,5.5c2,3.1,3,6.8,3,11.1C1081.7,114,1077.7,117.6,1069.6,117.6z"/>
		</g>
	</g>
	<g id="XMLID_45_">
		<g id="XMLID_58_">
			<circle id="XMLID_62_" class="st0" cx="1297.6" cy="76.3" r="153.7"/>
			<g id="XMLID_59_">
				<path id="XMLID_61_" class="st1" d="M1391.9,58.1c-1.3-29.1-25.2-52.2-54.6-52.2c-16.3,0-31,7.2-41,18.5
					c-10-11.3-24.7-18.5-41-18.5c-28.8,0-52.4,22.2-54.5,50.6c-0.1,0.6-0.1,1.4-0.1,2.1v61.7c0,7.6,6.1,13.7,13.7,13.7h0.3
					c7.6,0,13.7-6.1,13.7-13.7V60.6h0.1c0-15,12.2-27.2,27.2-27.2s27.2,12.2,27.2,27.2h0.1V111c0,7.6,6.1,13.7,13.7,13.7h0.3
					c7.6,0,13.7-6.1,13.7-13.7V60.5c0.1-15,12.2-27,27.2-27s27.2,12.2,27.2,27.2h0.1v59.8c0,7.5,6.1,13.5,13.5,13.5h0.3
					c7.5,0,13.5-6.1,13.5-13.5v-61C1391.9,58.8,1391.9,58.5,1391.9,58.1z"/>
				<path id="XMLID_60_" class="st1" d="M1340.2,139.3c-0.6-1-2.6,1-2.6,1c-7.6,8.2-23.3,13.5-39.6,13.5c-16.3,0-31.9-5.3-39.6-13.5
					c0,0-2-2.1-2.6-1c-0.8,1.2,0.4,3.1,0.4,3.1c9.7,14,24.5,20.3,41.8,20.3s32.1-6.3,41.8-20.3
					C1339.9,142.4,1341,140.5,1340.2,139.3z"/>
			</g>
		</g>
	</g>
</g>
</svg>
