<svg xmlns="http://www.w3.org/2000/svg" xmlns:xlink="http://www.w3.org/1999/xlink" width="309" height="248" viewBox="0 0 309 248">
  <defs>
    <linearGradient id="linear-gradient" y1="0.826" x2="1" y2="0.174" gradientUnits="objectBoundingBox">
      <stop offset="0" stop-color="#ffce83"/>
      <stop offset="1" stop-color="#f79f19"/>
    </linearGradient>
  </defs>
  <g id="Group_18" data-name="Group 18" transform="translate(5622.5 4364.5)">
    <path id="Subtraction_7" data-name="Subtraction 7" d="M1026.665,411H833.334a154.172,154.172,0,0,1-41.782-52.195,153.045,153.045,0,0,1,3.126-140.644A154.422,154.422,0,0,1,844.217,164h171.565a154.423,154.423,0,0,1,49.538,54.162,152.961,152.961,0,0,1-14.943,169.086A154.893,154.893,0,0,1,1026.665,411Z" transform="translate(-6398 -4528)" fill="#9a7bf6" stroke="rgba(0,0,0,0)" stroke-miterlimit="10" stroke-width="1"/>
    <ellipse id="Ellipse_2_copy_2" data-name="Ellipse 2 copy 2" cx="117.5" cy="117" rx="117.5" ry="117" transform="translate(-5585 -4353)" fill="url(#linear-gradient)"/>
  </g>
</svg>
