<svg xmlns="http://www.w3.org/2000/svg" xmlns:xlink="http://www.w3.org/1999/xlink" width="309" height="248" viewBox="0 0 309 248">
  <defs>
    <linearGradient id="linear-gradient" y1="0.826" x2="1" y2="0.174" gradientUnits="objectBoundingBox">
      <stop offset="0" stop-color="#ffce83"/>
      <stop offset="1" stop-color="#f79f19"/>
    </linearGradient>
  </defs>
  <g id="Group_20" data-name="Group 20" transform="translate(5608.5 3814.499)">
    <g id="Group_19" data-name="Group 19">
      <path id="Subtraction_8" data-name="Subtraction 8" d="M984.665,329H791.335a154.175,154.175,0,0,1-41.782-52.2,153.044,153.044,0,0,1,3.126-140.643A154.417,154.417,0,0,1,802.218,82H973.782a154.417,154.417,0,0,1,49.539,54.162,152.961,152.961,0,0,1-14.943,169.085A154.89,154.89,0,0,1,984.665,329Z" transform="translate(-6342 -3896)" fill="#c97bf6" stroke="rgba(0,0,0,0)" stroke-miterlimit="10" stroke-width="1"/>
      <ellipse id="Ellipse_2_copy_3" data-name="Ellipse 2 copy 3" cx="117.5" cy="117" rx="117.5" ry="117" transform="translate(-5571 -3803)" fill="url(#linear-gradient)"/>
    </g>
  </g>
</svg>
